18+ The Big Boss Bruce Lee Hindi Movies HD DvDRip x264 Sample Included ~ rDX

Screen Shots :
 
http://myimghosting.serveftp.com/TheBigBossBruceLee.html
 
http://myimghost.cwahi.net/TheBigBossBruceLee.html


Format                                   : Matroska
Format version                           : Version 2
File size                                : 798 MiB
Duration                                 : 1h 39mn
Overall bit rate                         : 1 120 Kbps
Encoded date                             : UTC 2013-01-21 04:07:47
Writing library                          : libebml v1.2.3 + libmatroska v1.3.0

Video
ID                                       : 1
Format                                   : AVC
Format/Info                              : Advanced Video Codec
Format profile                           : High@L3.0
Format settings, CABAC                   : Yes
Format settings, ReFrames                : 4 frames
Codec ID                                 : V_MPEG4/ISO/AVC
Duration                                 : 1h 39mn
Bit rate                                 : 990 Kbps
Width                                    : 800 pixels
Height                                   : 448 pixels
Display aspect ratio                     : 16:9
Frame rate mode                          : Constant
Frame rate                               : 23.976 fps
Color space                              : YUV
Chroma subsampling                       : 4:2:0
Bit depth                                : 8 bits
Scan type                                : Progressive
Bits/(Pixel*Frame)                       : 0.115
Stream size                              : 691 MiB (87%)
Writing library                          : x264 core 129 r2230 1cffe9f
Default                                  : Yes
Forced                                   : No
Color primaries                          : BT.709
Transfer characteristics                 : BT.709
Matrix coefficients                      : BT.709

Audio
ID                                       : 2
Format                                   : MPEG Audio
Format version                           : Version 1
Format profile                           : Layer 3
Mode                                     : Joint stereo
Mode extension                           : MS Stereo
Codec ID                                 : A_MPEG/L3
Codec ID/Hint                            : MP3
Duration                                 : 1h 39mn
Bit rate mode                            : Constant
Bit rate                                 : 128 Kbps
Channel(s)                               : 2 channels
Sampling rate                            : 44.1 KHz
Compression mode                         : Lossy
Stream size                              : 91.3 MiB (11%)
Title                                    : { therock7 }
Writing library                          : LAME3.99r
Encoding settings                        : -m j -V 4 -q 2 -lowpass 17 -b 128
Language                                 : Hindi
Default                                  : Yes
Forced                                   : No